<svg id="svg" xmlns="http://www.w3.org/2000/svg" xmlns:xlink="http://www.w3.org/1999/xlink" width="400" height="322.7053140096619" viewBox="0, 0, 400,322.7053140096619"><g id="svgg"><path id="path0" d="M107.393 15.221 C 106.817 16.153,102.632 17.851,98.093 18.994 C 78.480 23.933,48.046 53.595,41.329 74.320 C 39.593 79.676,37.410 84.884,36.477 85.894 C 34.200 88.361,34.304 132.500,36.597 136.741 C 37.595 138.587,41.453 146.618,45.170 154.589 C 53.317 172.059,68.792 188.214,86.379 197.611 C 95.727 202.605,97.939 204.612,96.537 206.829 C 89.064 218.645,97.521 241.866,112.892 251.733 L 122.609 257.971 196.348 258.539 C 267.551 259.088,270.208 259.242,273.627 263.019 C 278.285 268.166,274.144 276.424,265.641 278.944 C 256.253 281.727,254.201 283.227,252.238 288.738 C 246.978 303.502,269.160 311.436,285.407 300.602 C 309.126 284.787,309.555 253.685,286.286 236.957 L 277.886 230.918 203.194 230.414 C 122.610 229.871,121.739 229.752,121.739 219.248 C 121.739 210.915,124.265 210.629,197.723 210.617 C 274.645 210.605,278.354 210.160,290.117 199.534 C 312.088 179.684,307.278 149.648,280.158 137.347 C 268.540 132.077,261.746 132.281,255.951 138.076 C 248.100 145.927,252.487 160.386,262.719 160.386 C 273.082 160.386,278.641 169.129,273.382 177.155 L 270.334 181.808 193.621 181.139 C 95.732 180.284,86.863 177.455,69.129 141.437 C 33.578 69.230,136.509 1.218,185.507 64.540 C 194.256 75.847,199.034 84.168,199.034 88.099 C 199.034 94.590,201.537 95.190,213.776 91.632 C 233.822 85.804,250.607 90.035,263.335 104.123 C 268.015 109.303,273.098 112.610,278.648 114.086 C 283.218 115.301,289.668 117.955,292.982 119.984 C 305.106 127.405,305.768 122.232,295.263 102.169 C 281.527 75.937,247.477 56.441,223.314 60.974 C 219.222 61.741,216.425 61.497,216.425 60.371 C 216.425 52.419,177.771 19.346,168.437 19.312 C 166.666 19.305,162.727 18.001,159.682 16.413 C 153.500 13.189,109.272 12.181,107.393 15.221 M316.242 161.988 C 309.158 169.815,313.545 182.249,324.290 184.798 C 345.510 189.832,338.867 206.763,315.671 206.763 C 300.480 206.763,293.720 210.682,293.720 219.487 C 293.720 239.410,335.366 239.685,354.106 219.886 C 370.505 202.561,366.450 177.351,345.024 163.418 C 335.534 157.247,321.178 156.534,316.242 161.988 " stroke="none" fill="#000000" fill-rule="evenodd"></path></g></svg>